<svg width="219" height="46" viewBox="0 0 219 46" fill="none" xmlns="http://www.w3.org/2000/svg">
<path d="M13.4007 22.4531C13.4007 21.9645 13.5403 21.5981 13.8195 21.3538C14.1335 21.0746 14.5 20.9351 14.9187 20.9351H24.9693V2.40441C24.9693 1.88094 25.1263 1.49707 25.4404 1.25279C25.7545 0.973606 26.1558 0.834015 26.6443 0.834015C27.1329 0.834015 27.5342 0.973606 27.8483 1.25279C28.1973 1.49707 28.3718 1.88094 28.3718 2.40441V44.2292C28.3718 44.7527 28.1973 45.1366 27.8483 45.3809C27.5342 45.66 27.1329 45.7996 26.6443 45.7996C26.1558 45.7996 25.7545 45.66 25.4404 45.3809C25.1263 45.1366 24.9693 44.7527 24.9693 44.2292V23.9711H14.9187C14.5 23.9711 14.1335 23.849 13.8195 23.6047C13.5403 23.3255 13.4007 22.9417 13.4007 22.4531ZM15.8086 42.6588C15.8086 43.1474 15.6516 43.5138 15.3375 43.7581C15.0583 44.0373 14.7094 44.1769 14.2906 44.1769H3.76894C2.9314 44.1769 2.2509 44.0547 1.72743 43.8105C1.23887 43.5662 0.854992 43.2521 0.575811 42.8682C0.331527 42.4843 0.174488 42.0481 0.104693 41.5596C0.0348975 41.071 0 40.5824 0 40.0939V2.87553C0 2.35206 0.157039 1.96819 0.471118 1.72391C0.785197 1.44472 1.18652 1.30513 1.67509 1.30513C2.16365 1.30513 2.56498 1.44472 2.87906 1.72391C3.22803 1.96819 3.40252 2.35206 3.40252 2.87553V40.0939C3.40252 40.5126 3.47231 40.7918 3.61191 40.9314C3.78639 41.071 4.01323 41.1408 4.29241 41.1408H14.2906C14.7094 41.1408 15.0583 41.2629 15.3375 41.5072C15.6516 41.7864 15.8086 42.1703 15.8086 42.6588ZM35.962 2.40441C35.962 1.88094 36.1191 1.49707 36.4331 1.25279C36.7472 0.973606 37.1485 0.834015 37.6371 0.834015C38.1257 0.834015 38.527 0.973606 38.8411 1.25279C39.19 1.49707 39.3645 1.88094 39.3645 2.40441V44.2292C39.3645 44.7527 39.19 45.1366 38.8411 45.3809C38.527 45.66 38.1257 45.7996 37.6371 45.7996C37.1485 45.7996 36.7472 45.66 36.4331 45.3809C36.1191 45.1366 35.962 44.7527 35.962 44.2292V2.40441Z" fill="#0A0A0A"/>
<path d="M47.9596 3.50368C47.9596 3.01512 48.0992 2.64869 48.3783 2.40441C48.6924 2.12523 49.0589 1.98564 49.4776 1.98564H63.1924C64.0299 1.98564 64.693 2.09033 65.1816 2.29972C65.6701 2.4742 66.0191 2.71849 66.2285 3.03257C66.4728 3.34664 66.6124 3.73052 66.6473 4.18419C66.7171 4.60296 66.752 5.05663 66.752 5.5452V12.3502C66.752 15.3514 66.4204 18.0037 65.7574 20.3069C65.1292 22.6101 64.344 24.547 63.4018 26.1174C63.0528 26.6757 62.5991 26.9723 62.0408 27.0072C61.4824 27.0072 61.0113 26.8502 60.6274 26.5361C59.9644 25.9778 59.9469 25.1402 60.5751 24.0235C61.3777 22.5927 61.971 21.2317 62.3549 19.9405C62.7387 18.6144 63.0005 17.2534 63.1401 15.8574H48.5877C48.169 15.8574 47.8025 15.7353 47.4885 15.491C47.2093 15.2118 47.0697 14.828 47.0697 14.3394C47.0697 13.8508 47.2093 13.4844 47.4885 13.2401C47.8025 12.9609 48.169 12.8214 48.5877 12.8214H63.3494V11.8791V6.06866C63.3494 5.64989 63.2622 5.37071 63.0877 5.23112C62.9481 5.09153 62.7387 5.02173 62.4595 5.02173H49.4776C49.0589 5.02173 48.6924 4.89959 48.3783 4.65531C48.0992 4.37613 47.9596 3.99225 47.9596 3.50368ZM89.4703 41.7166C90.5172 42.0307 90.9709 42.6414 90.8313 43.5487C90.7964 44.0373 90.6045 44.4212 90.2555 44.7003C89.9065 44.9795 89.418 45.0842 88.7898 45.0144C86.4866 44.7003 84.4102 44.3165 82.5606 43.8628C80.711 43.4091 79.0534 42.8508 77.5877 42.1877C76.122 41.5596 74.8133 40.8267 73.6617 39.9892C72.5101 39.1516 71.4457 38.1745 70.4686 37.0578C69.5263 38.2792 68.4619 39.3261 67.2754 40.1986C66.1238 41.1059 64.8151 41.8736 63.3494 42.5018C61.8837 43.13 60.2261 43.6534 58.3765 44.0722C56.5269 44.491 54.4505 44.805 52.1473 45.0144C51.5191 45.0842 51.0306 44.9621 50.6816 44.648C50.3675 44.3688 50.193 44.0024 50.1581 43.5487C50.0534 42.5716 50.5246 41.9783 51.5715 41.7689C53.8398 41.5596 56.0035 41.2106 58.0624 40.722C60.1563 40.2334 61.9884 39.5704 63.5588 38.7328C65.1641 37.8953 66.4379 36.8658 67.3801 35.6444C68.3223 34.3881 68.7935 32.9224 68.7935 31.2473V29.834C68.7935 29.3105 68.9505 28.9266 69.2646 28.6823C69.5787 28.4032 69.98 28.2636 70.4686 28.2636C70.9571 28.2636 71.3584 28.4032 71.6725 28.6823C72.0215 28.9266 72.196 29.3105 72.196 29.834V31.2473C72.196 32.9224 72.6671 34.3706 73.6093 35.5921C74.5516 36.7786 75.8253 37.7732 77.4306 38.5758C79.0359 39.4134 80.868 40.0764 82.927 40.565C85.0209 41.0535 87.202 41.4374 89.4703 41.7166ZM74.0281 14.2347C74.0281 13.7461 74.1677 13.3797 74.4469 13.1354C74.761 12.8563 75.1274 12.7167 75.5462 12.7167H84.6021V2.40441C84.6021 1.88094 84.7591 1.49707 85.0732 1.25279C85.3873 0.973606 85.7886 0.834015 86.2772 0.834015C86.7657 0.834015 87.1671 0.973606 87.4812 1.25279C87.8301 1.49707 88.0046 1.88094 88.0046 2.40441V27.1119C88.0046 27.6354 87.8301 28.0367 87.4812 28.3159C87.1671 28.5602 86.7657 28.6823 86.2772 28.6823C85.7886 28.6823 85.3873 28.5602 85.0732 28.3159C84.7591 28.0367 84.6021 27.6354 84.6021 27.1119V15.7528H75.5462C75.1274 15.7528 74.761 15.6306 74.4469 15.3863C74.1677 15.1071 74.0281 14.7233 74.0281 14.2347Z" fill="#0A0A0A"/>
<path d="M148.343 2.92787C148.343 3.41644 148.186 3.80032 147.872 4.0795C147.593 4.32378 147.244 4.44592 146.825 4.44592H137.978V24.1282C137.978 25.9429 138.258 27.6529 138.816 29.2581C139.374 30.8285 140.142 32.3291 141.119 33.7599C142.096 35.1558 143.248 36.4994 144.574 37.7906C145.9 39.0818 147.313 40.3556 148.814 41.6119C149.233 41.9609 149.46 42.3622 149.495 42.8159C149.529 43.2695 149.407 43.6883 149.128 44.0722C148.849 44.4561 148.43 44.6655 147.872 44.7003C147.348 44.7352 146.842 44.5433 146.354 44.1245C144.155 42.275 142.184 40.3032 140.439 38.2094C138.729 36.1155 137.368 33.9693 136.356 31.7708C135.448 33.9693 134.157 36.1504 132.482 38.3141C130.842 40.5126 128.905 42.5541 126.672 44.4386C126.183 44.8923 125.659 45.0842 125.101 45.0144C124.578 44.9446 124.176 44.7178 123.897 44.3339C123.618 43.95 123.513 43.5313 123.583 43.0776C123.688 42.6239 123.932 42.2052 124.316 41.8213C125.712 40.6348 127.02 39.3785 128.242 38.0523C129.498 36.7611 130.597 35.3827 131.54 33.917C132.482 32.4513 133.215 30.9158 133.738 29.3105C134.297 27.6703 134.576 25.9429 134.576 24.1282V4.44592H125.729C125.31 4.44592 124.944 4.32378 124.63 4.0795C124.351 3.80032 124.211 3.41644 124.211 2.92787C124.211 2.43931 124.351 2.07288 124.63 1.8286C124.944 1.54942 125.31 1.40982 125.729 1.40982H146.825C147.244 1.40982 147.593 1.54942 147.872 1.8286C148.186 2.07288 148.343 2.43931 148.343 2.92787ZM161.22 2.40441C161.22 1.88094 161.377 1.49707 161.691 1.25279C162.005 0.973606 162.407 0.834015 162.895 0.834015C163.384 0.834015 163.785 0.973606 164.099 1.25279C164.448 1.49707 164.623 1.88094 164.623 2.40441V44.2292C164.623 44.7527 164.448 45.1366 164.099 45.3809C163.785 45.66 163.384 45.7996 162.895 45.7996C162.407 45.7996 162.005 45.66 161.691 45.3809C161.377 45.1366 161.22 44.7527 161.22 44.2292V2.40441Z" fill="#0A0A0A"/>
<path d="M212.739 1.35748C213.158 1.35748 213.507 1.49707 213.786 1.77625C214.1 2.02053 214.257 2.38696 214.257 2.87553C214.257 3.3641 214.1 3.74797 213.786 4.02715C213.507 4.27143 213.158 4.39357 212.739 4.39357H182.012C181.733 4.39357 181.506 4.46337 181.331 4.60296C181.192 4.74255 181.122 5.02173 181.122 5.4405V19.7834C181.122 20.2022 181.192 20.4814 181.331 20.621C181.506 20.7606 181.733 20.8304 182.012 20.8304H213.315C213.734 20.8304 214.083 20.97 214.362 21.2491C214.676 21.4934 214.833 21.8598 214.833 22.3484C214.833 22.837 214.676 23.2208 214.362 23.5C214.083 23.7443 213.734 23.8665 213.315 23.8665H181.488C180.651 23.8665 179.97 23.7443 179.447 23.5C178.958 23.2557 178.575 22.9417 178.295 22.5578C178.051 22.1739 177.894 21.7377 177.824 21.2491C177.754 20.7606 177.72 20.272 177.72 19.7834V5.4405C177.72 4.95194 177.754 4.46337 177.824 3.9748C177.894 3.48624 178.051 3.05002 178.295 2.66614C178.575 2.28227 178.958 1.96819 179.447 1.72391C179.97 1.47962 180.651 1.35748 181.488 1.35748H212.739ZM218.55 42.8682C218.55 43.3568 218.393 43.7232 218.079 43.9675C217.799 44.2467 217.451 44.3863 217.032 44.3863H175.155C174.736 44.3863 174.369 44.2467 174.055 43.9675C173.776 43.7232 173.637 43.3568 173.637 42.8682C173.637 42.3797 173.776 41.9958 174.055 41.7166C174.369 41.4723 174.736 41.3502 175.155 41.3502H194.156V30.9856C194.156 30.4621 194.313 30.0782 194.627 29.834C194.941 29.5548 195.343 29.4152 195.831 29.4152C196.32 29.4152 196.721 29.5548 197.035 29.834C197.384 30.0782 197.559 30.4621 197.559 30.9856V41.3502H217.032C217.451 41.3502 217.799 41.4723 218.079 41.7166C218.393 41.9958 218.55 42.3797 218.55 42.8682Z" fill="#0A0A0A"/>
</svg>
