<svg width="177" height="43" viewBox="0 0 177 43" fill="none" xmlns="http://www.w3.org/2000/svg">
<path d="M12.8893 20.744C12.8893 20.296 13.0173 19.96 13.2733 19.736C13.5613 19.48 13.8973 19.352 14.2813 19.352H23.4973V2.36C23.4973 1.88 23.6413 1.528 23.9293 1.304C24.2173 1.048 24.5853 0.919998 25.0333 0.919998C25.4813 0.919998 25.8493 1.048 26.1373 1.304C26.4573 1.528 26.6173 1.88 26.6173 2.36V40.712C26.6173 41.192 26.4573 41.544 26.1373 41.768C25.8493 42.024 25.4813 42.152 25.0333 42.152C24.5853 42.152 24.2173 42.024 23.9293 41.768C23.6413 41.544 23.4973 41.192 23.4973 40.712V22.136H14.2813C13.8973 22.136 13.5613 22.024 13.2733 21.8C13.0173 21.544 12.8893 21.192 12.8893 20.744ZM15.0973 39.272C15.0973 39.72 14.9533 40.056 14.6653 40.28C14.4093 40.536 14.0893 40.664 13.7053 40.664H4.05725C3.28925 40.664 2.66525 40.552 2.18525 40.328C1.73725 40.104 1.38525 39.816 1.12925 39.464C0.90525 39.112 0.76125 38.712 0.69725 38.264C0.63325 37.816 0.60125 37.368 0.60125 36.92V2.792C0.60125 2.312 0.74525 1.96 1.03325 1.736C1.32125 1.48 1.68925 1.352 2.13725 1.352C2.58525 1.352 2.95325 1.48 3.24125 1.736C3.56125 1.96 3.72125 2.312 3.72125 2.792V36.92C3.72125 37.304 3.78525 37.56 3.91325 37.688C4.07325 37.816 4.28125 37.88 4.53725 37.88H13.7053C14.0893 37.88 14.4093 37.992 14.6653 38.216C14.9533 38.472 15.0973 38.824 15.0973 39.272ZM33.5773 2.36C33.5773 1.88 33.7213 1.528 34.0093 1.304C34.2973 1.048 34.6653 0.919998 35.1133 0.919998C35.5613 0.919998 35.9293 1.048 36.2173 1.304C36.5373 1.528 36.6973 1.88 36.6973 2.36V40.712C36.6973 41.192 36.5373 41.544 36.2173 41.768C35.9293 42.024 35.5613 42.152 35.1133 42.152C34.6653 42.152 34.2973 42.024 34.0093 41.768C33.7213 41.544 33.5773 41.192 33.5773 40.712V2.36ZM44.5786 3.368C44.5786 2.92 44.7066 2.584 44.9626 2.36C45.2506 2.104 45.5866 1.976 45.9706 1.976H58.5466C59.3146 1.976 59.9226 2.072 60.3706 2.264C60.8186 2.424 61.1386 2.648 61.3306 2.936C61.5546 3.224 61.6826 3.576 61.7146 3.992C61.7786 4.376 61.8106 4.792 61.8106 5.24V11.48C61.8106 14.232 61.5066 16.664 60.8986 18.776C60.3226 20.888 59.6026 22.664 58.7386 24.104C58.4186 24.616 58.0026 24.888 57.4906 24.92C56.9786 24.92 56.5466 24.776 56.1946 24.488C55.5866 23.976 55.5706 23.208 56.1466 22.184C56.8826 20.872 57.4266 19.624 57.7786 18.44C58.1306 17.224 58.3706 15.976 58.4986 14.696H45.1546C44.7706 14.696 44.4346 14.584 44.1466 14.36C43.8906 14.104 43.7626 13.752 43.7626 13.304C43.7626 12.856 43.8906 12.52 44.1466 12.296C44.4346 12.04 44.7706 11.912 45.1546 11.912H58.6906V11.048V5.72C58.6906 5.336 58.6106 5.08 58.4506 4.952C58.3226 4.824 58.1306 4.76 57.8746 4.76H45.9706C45.5866 4.76 45.2506 4.648 44.9626 4.424C44.7066 4.168 44.5786 3.816 44.5786 3.368ZM82.6426 38.408C83.6026 38.696 84.0186 39.256 83.8906 40.088C83.8586 40.536 83.6826 40.888 83.3626 41.144C83.0426 41.4 82.5946 41.496 82.0186 41.432C79.9066 41.144 78.0026 40.792 76.3066 40.376C74.6106 39.96 73.0906 39.448 71.7466 38.84C70.4026 38.264 69.2026 37.592 68.1466 36.824C67.0906 36.056 66.1146 35.16 65.2186 34.136C64.3546 35.256 63.3786 36.216 62.2906 37.016C61.2346 37.848 60.0346 38.552 58.6906 39.128C57.3466 39.704 55.8266 40.184 54.1306 40.568C52.4346 40.952 50.5306 41.24 48.4186 41.432C47.8426 41.496 47.3946 41.384 47.0746 41.096C46.7866 40.84 46.6266 40.504 46.5946 40.088C46.4986 39.192 46.9306 38.648 47.8906 38.456C49.9706 38.264 51.9546 37.944 53.8426 37.496C55.7626 37.048 57.4426 36.44 58.8826 35.672C60.3546 34.904 61.5226 33.96 62.3866 32.84C63.2506 31.688 63.6826 30.344 63.6826 28.808V27.512C63.6826 27.032 63.8266 26.68 64.1146 26.456C64.4026 26.2 64.7706 26.072 65.2186 26.072C65.6666 26.072 66.0346 26.2 66.3226 26.456C66.6426 26.68 66.8026 27.032 66.8026 27.512V28.808C66.8026 30.344 67.2346 31.672 68.0986 32.792C68.9626 33.88 70.1306 34.792 71.6026 35.528C73.0746 36.296 74.7546 36.904 76.6426 37.352C78.5626 37.8 80.5626 38.152 82.6426 38.408ZM68.4826 13.208C68.4826 12.76 68.6106 12.424 68.8666 12.2C69.1546 11.944 69.4906 11.816 69.8746 11.816H78.1786V2.36C78.1786 1.88 78.3226 1.528 78.6106 1.304C78.8986 1.048 79.2666 0.919998 79.7146 0.919998C80.1626 0.919998 80.5306 1.048 80.8186 1.304C81.1386 1.528 81.2986 1.88 81.2986 2.36V25.016C81.2986 25.496 81.1386 25.864 80.8186 26.12C80.5306 26.344 80.1626 26.456 79.7146 26.456C79.2666 26.456 78.8986 26.344 78.6106 26.12C78.3226 25.864 78.1786 25.496 78.1786 25.016V14.6H69.8746C69.4906 14.6 69.1546 14.488 68.8666 14.264C68.6106 14.008 68.4826 13.656 68.4826 13.208ZM112.076 2.84C112.076 3.288 111.932 3.64 111.644 3.896C111.388 4.12 111.068 4.232 110.684 4.232H102.572V22.28C102.572 23.944 102.828 25.512 103.34 26.984C103.852 28.424 104.556 29.8 105.452 31.112C106.348 32.392 107.404 33.624 108.62 34.808C109.836 35.992 111.132 37.16 112.508 38.312C112.892 38.632 113.1 39 113.132 39.416C113.164 39.832 113.052 40.216 112.796 40.568C112.54 40.92 112.156 41.112 111.644 41.144C111.164 41.176 110.7 41 110.252 40.616C108.236 38.92 106.428 37.112 104.828 35.192C103.26 33.272 102.012 31.304 101.084 29.288C100.252 31.304 99.068 33.304 97.532 35.288C96.028 37.304 94.252 39.176 92.204 40.904C91.756 41.32 91.276 41.496 90.764 41.432C90.284 41.368 89.916 41.16 89.66 40.808C89.404 40.456 89.308 40.072 89.372 39.656C89.468 39.24 89.692 38.856 90.044 38.504C91.324 37.416 92.524 36.264 93.644 35.048C94.796 33.864 95.804 32.6 96.668 31.256C97.532 29.912 98.204 28.504 98.684 27.032C99.196 25.528 99.452 23.944 99.452 22.28V4.232H91.34C90.956 4.232 90.62 4.12 90.332 3.896C90.076 3.64 89.948 3.288 89.948 2.84C89.948 2.392 90.076 2.056 90.332 1.832C90.62 1.576 90.956 1.448 91.34 1.448H110.684C111.068 1.448 111.388 1.576 111.644 1.832C111.932 2.056 112.076 2.392 112.076 2.84ZM123.884 2.36C123.884 1.88 124.028 1.528 124.316 1.304C124.604 1.048 124.972 0.919998 125.42 0.919998C125.868 0.919998 126.236 1.048 126.524 1.304C126.844 1.528 127.004 1.88 127.004 2.36V40.712C127.004 41.192 126.844 41.544 126.524 41.768C126.236 42.024 125.868 42.152 125.42 42.152C124.972 42.152 124.604 42.024 124.316 41.768C124.028 41.544 123.884 41.192 123.884 40.712V2.36ZM171.125 1.4C171.509 1.4 171.829 1.528 172.085 1.784C172.373 2.008 172.517 2.344 172.517 2.792C172.517 3.24 172.373 3.592 172.085 3.848C171.829 4.072 171.509 4.184 171.125 4.184H142.949C142.693 4.184 142.485 4.248 142.325 4.376C142.197 4.504 142.133 4.76 142.133 5.144V18.296C142.133 18.68 142.197 18.936 142.325 19.064C142.485 19.192 142.693 19.256 142.949 19.256H171.653C172.037 19.256 172.357 19.384 172.613 19.64C172.901 19.864 173.045 20.2 173.045 20.648C173.045 21.096 172.901 21.448 172.613 21.704C172.357 21.928 172.037 22.04 171.653 22.04H142.469C141.701 22.04 141.077 21.928 140.597 21.704C140.149 21.48 139.797 21.192 139.541 20.84C139.317 20.488 139.173 20.088 139.109 19.64C139.045 19.192 139.013 18.744 139.013 18.296V5.144C139.013 4.696 139.045 4.248 139.109 3.8C139.173 3.352 139.317 2.952 139.541 2.6C139.797 2.248 140.149 1.96 140.597 1.736C141.077 1.512 141.701 1.4 142.469 1.4H171.125ZM176.453 39.464C176.453 39.912 176.309 40.248 176.021 40.472C175.765 40.728 175.445 40.856 175.061 40.856H136.661C136.277 40.856 135.941 40.728 135.653 40.472C135.397 40.248 135.269 39.912 135.269 39.464C135.269 39.016 135.397 38.664 135.653 38.408C135.941 38.184 136.277 38.072 136.661 38.072H154.085V28.568C154.085 28.088 154.229 27.736 154.517 27.512C154.805 27.256 155.173 27.128 155.621 27.128C156.069 27.128 156.437 27.256 156.725 27.512C157.045 27.736 157.205 28.088 157.205 28.568V38.072H175.061C175.445 38.072 175.765 38.184 176.021 38.408C176.309 38.664 176.453 39.016 176.453 39.464Z" fill="#0A0A0A"/>
</svg>
