<svg width="28" height="28" viewBox="0 0 28 28" fill="none" xmlns="http://www.w3.org/2000/svg">
<circle cx="14" cy="14" r="14" fill="#FC5A2F"/>
<path fill-rule="evenodd" clip-rule="evenodd" d="M17.546 16.605C19.1752 14.5127 19.028 11.4856 17.1046 9.5621C15.0218 7.4793 11.6449 7.4793 9.5621 9.5621C7.4793 11.6449 7.4793 15.0218 9.5621 17.1046C11.4856 19.028 14.5127 19.1752 16.605 17.546C16.614 17.5562 16.6234 17.5662 16.6332 17.576L19.4616 20.4044C19.7219 20.6648 20.1441 20.6648 20.4044 20.4044C20.6648 20.1441 20.6648 19.7219 20.4044 19.4616L17.576 16.6332C17.5662 16.6234 17.5562 16.614 17.546 16.605ZM16.1618 10.5049C17.7239 12.067 17.7239 14.5997 16.1618 16.1618C14.5997 17.7239 12.067 17.7239 10.5049 16.1618C8.94281 14.5997 8.94281 12.067 10.5049 10.5049C12.067 8.94281 14.5997 8.94281 16.1618 10.5049Z" fill="white"/>
</svg>
