<svg width="16" height="16" viewBox="0 0 16 16" fill="none" xmlns="http://www.w3.org/2000/svg">
<path d="M13.1045 3.28642C13.1045 2.91823 12.806 2.61975 12.4378 2.61975C12.0696 2.61975 11.7711 2.91823 11.7711 3.28642V4.22874C10.8066 3.26439 9.47289 2.66669 7.99996 2.66669C5.05444 2.66669 2.66663 5.0545 2.66663 8.00002C2.66663 10.9455 5.05444 13.3334 7.99996 13.3334C10.9455 13.3334 13.3333 10.9455 13.3333 8.00002C13.3333 7.63183 13.0348 7.33335 12.6666 7.33335C12.2984 7.33335 12 7.63183 12 8.00002C12 10.2092 10.2091 12 7.99996 12C5.79082 12 3.99996 10.2092 3.99996 8.00002C3.99996 5.79088 5.79082 4.00002 7.99996 4.00002C9.10455 4.00002 10.1043 4.44715 10.8289 5.17204L9.8855 5.17204C9.51731 5.17204 9.21883 5.47051 9.21883 5.8387C9.21883 6.20689 9.51731 6.50537 9.8855 6.50537H12.4378C12.6146 6.50537 12.7842 6.43513 12.9092 6.31011C13.0342 6.18508 13.1045 6.01551 13.1045 5.8387V3.28642Z" fill="white"/>
</svg>
