<svg width="25" height="24" viewBox="0 0 25 24" fill="none" xmlns="http://www.w3.org/2000/svg">
<path fill-rule="evenodd" clip-rule="evenodd" d="M1.5 12C1.5 5.92487 6.42487 1 12.5 1C18.5751 1 23.5 5.92487 23.5 12C23.5 18.0751 18.5751 23 12.5 23C6.42487 23 1.5 18.0751 1.5 12Z" fill="#333333"/>
<path d="M16.8394 9.32245C17.2434 8.94589 17.2657 8.31312 16.8891 7.90911C16.5126 7.50509 15.8798 7.48283 15.4758 7.85938L12.5497 10.5866L9.82245 7.66048C9.44589 7.25647 8.81312 7.23421 8.40911 7.61076C8.00509 7.98731 7.98283 8.62008 8.35938 9.0241L11.0866 11.9502L8.16048 14.6775C7.75647 15.054 7.73421 15.6868 8.11076 16.0908C8.48731 16.4948 9.12008 16.5171 9.5241 16.1405L12.4502 13.4133L15.1775 16.3394C15.554 16.7434 16.1868 16.7657 16.5908 16.3891C16.9948 16.0126 17.0171 15.3798 16.6405 14.9758L13.9133 12.0497L16.8394 9.32245Z" fill="white"/>
</svg>
