<svg width="40" height="40" viewBox="0 0 40 40" fill="none" xmlns="http://www.w3.org/2000/svg">
<path d="M19.9999 10C20.9204 10 21.6666 10.7462 21.6666 11.6667V21.6667C21.6666 22.5872 20.9204 23.3334 19.9999 23.3334C19.0794 23.3334 18.3333 22.5872 18.3333 21.6667V11.6667C18.3333 10.7462 19.0794 10 19.9999 10Z" fill="#333333" fill-opacity="0.4"/>
<path d="M19.9999 26.6667C19.0794 26.6667 18.3333 27.4129 18.3333 28.3334C18.3333 29.2538 19.0794 30 19.9999 30C20.9204 30 21.6666 29.2538 21.6666 28.3334C21.6666 27.4129 20.9204 26.6667 19.9999 26.6667Z" fill="#333333" fill-opacity="0.4"/>
<path fill-rule="evenodd" clip-rule="evenodd" d="M19.9999 3.33337C10.7952 3.33337 3.33325 10.7953 3.33325 20C3.33325 29.2048 10.7952 36.6667 19.9999 36.6667C29.2047 36.6667 36.6666 29.2048 36.6666 20C36.6666 10.7953 29.2047 3.33337 19.9999 3.33337ZM6.66659 20C6.66659 27.3638 12.6361 33.3334 19.9999 33.3334C27.3637 33.3334 33.3333 27.3638 33.3333 20C33.3333 12.6362 27.3637 6.66671 19.9999 6.66671C12.6361 6.66671 6.66659 12.6362 6.66659 20Z" fill="#333333" fill-opacity="0.4"/>
</svg>
