<svg width="25" height="24" viewBox="0 0 25 24" fill="none" xmlns="http://www.w3.org/2000/svg">
<path fill-rule="evenodd" clip-rule="evenodd" d="M7.5 12C7.5 11.4477 7.94772 11 8.5 11H16.5C17.0523 11 17.5 11.4477 17.5 12C17.5 12.5523 17.0523 13 16.5 13H8.5C7.94772 13 7.5 12.5523 7.5 12Z" fill="#FC5A2F"/>
<path fill-rule="evenodd" clip-rule="evenodd" d="M7.5 7C7.5 6.44772 7.94772 6 8.5 6H18.5C19.0523 6 19.5 6.44772 19.5 7C19.5 7.55228 19.0523 8 18.5 8H8.5C7.94772 8 7.5 7.55228 7.5 7Z" fill="#FC5A2F"/>
<path fill-rule="evenodd" clip-rule="evenodd" d="M7.5 17C7.5 16.4477 7.94772 16 8.5 16H18.5C19.0523 16 19.5 16.4477 19.5 17C19.5 17.5523 19.0523 18 18.5 18H8.5C7.94772 18 7.5 17.5523 7.5 17Z" fill="#FC5A2F"/>
<path d="M3.5 7C3.5 6.44772 3.94772 6 4.5 6C5.05228 6 5.5 6.44772 5.5 7C5.5 7.55228 5.05228 8 4.5 8C3.94772 8 3.5 7.55228 3.5 7Z" fill="#FC5A2F"/>
<path d="M3.5 12C3.5 11.4477 3.94772 11 4.5 11C5.05228 11 5.5 11.4477 5.5 12C5.5 12.5523 5.05228 13 4.5 13C3.94772 13 3.5 12.5523 3.5 12Z" fill="#FC5A2F"/>
<path d="M3.5 17C3.5 16.4477 3.94772 16 4.5 16C5.05228 16 5.5 16.4477 5.5 17C5.5 17.5523 5.05228 18 4.5 18C3.94772 18 3.5 17.5523 3.5 17Z" fill="#FC5A2F"/>
</svg>
