<svg width="40" height="40" viewBox="0 0 40 40" fill="none" xmlns="http://www.w3.org/2000/svg">
<path d="M32.7477 15.491L24.681 14.791L21.531 7.37432C20.9643 6.02432 19.031 6.02432 18.4643 7.37432L15.3143 14.8077L7.26435 15.491C5.79768 15.6077 5.19768 17.441 6.31435 18.4077L12.431 23.7077L10.5977 31.5743C10.2643 33.0077 11.8143 34.141 13.081 33.3743L19.9977 29.2077L26.9143 33.391C28.181 34.1577 29.731 33.0243 29.3977 31.591L27.5643 23.7077L33.681 18.4077C34.7977 17.441 34.2143 15.6077 32.7477 15.491ZM19.9977 26.091L13.731 29.8743L15.3977 22.741L9.86435 17.941L17.1643 17.3077L19.9977 10.591L22.8477 17.3243L30.1477 17.9577L24.6143 22.7576L26.281 29.891L19.9977 26.091Z" fill="#ECECF1"/>
</svg>
