<svg width="24" height="24" viewBox="0 0 24 24" fill="none" xmlns="http://www.w3.org/2000/svg">
<path d="M6.22517 4.81145C5.83465 4.42092 5.20148 4.42092 4.81096 4.81145C4.42044 5.20197 4.42044 5.83514 4.81096 6.22566L10.5857 12.0004L4.81102 17.7751C4.4205 18.1656 4.42049 18.7988 4.81102 19.1893C5.20154 19.5798 5.83471 19.5798 6.22523 19.1893L11.9999 13.4146L17.7746 19.1893C18.1651 19.5798 18.7983 19.5798 19.1888 19.1893C19.5793 18.7988 19.5793 18.1656 19.1888 17.7751L13.4141 12.0004L19.1889 6.22566C19.5794 5.83514 19.5794 5.20197 19.1889 4.81145C18.7983 4.42092 18.1652 4.42092 17.7746 4.81145L11.9999 10.5862L6.22517 4.81145Z" fill="#333333"/>
</svg>
