<svg width="12" height="12" viewBox="0 0 12 12" fill="none" xmlns="http://www.w3.org/2000/svg">
<path d="M9.82424 4.64744L7.40424 4.43744L6.45924 2.21244C6.28924 1.80744 5.70924 1.80744 5.53924 2.21244L4.59424 4.44244L2.17924 4.64744C1.73924 4.68244 1.55924 5.23244 1.89424 5.52244L3.72924 7.11244L3.17924 9.47244C3.07924 9.90244 3.54424 10.2424 3.92424 10.0124L5.99924 8.76244L8.07424 10.0174C8.45424 10.2474 8.91924 9.90744 8.81924 9.47744L8.26924 7.11244L10.1042 5.52244C10.4392 5.23244 10.2642 4.68244 9.82424 4.64744ZM5.99924 7.82744V3.17744L6.85424 5.19744L9.04424 5.38744L7.38424 6.82744L7.88424 8.96744L5.99924 7.82744Z" fill="#333333"/>
</svg>
