<svg width="20" height="20" viewBox="0 0 20 20" fill="none" xmlns="http://www.w3.org/2000/svg">
<path d="M16.3738 7.74574L12.3404 7.39574L10.7654 3.6874C10.4821 3.0124 9.51544 3.0124 9.23211 3.6874L7.65711 7.40407L3.63211 7.74574C2.89878 7.80407 2.59878 8.72074 3.15711 9.20407L6.21545 11.8541L5.29878 15.7874C5.13211 16.5041 5.90711 17.0707 6.54044 16.6874L9.99878 14.6041L13.4571 16.6957C14.0904 17.0791 14.8654 16.5124 14.6988 15.7957L13.7821 11.8541L16.8404 9.20407C17.3988 8.72074 17.1071 7.80407 16.3738 7.74574ZM9.99878 13.0457V5.29574L11.4238 8.6624L15.0738 8.97907L12.3071 11.3791L13.1404 14.9457L9.99878 13.0457Z" fill="#FC5A2F"/>
</svg>
