<svg width="17" height="16" viewBox="0 0 17 16" fill="none" xmlns="http://www.w3.org/2000/svg">
<path opacity="0.3" d="M4.08331 12.2061L6.08331 11.4328V3.63281L4.08331 4.30615V12.2061ZM11.4166 12.3661L13.4166 11.6928V3.79281L11.4166 4.57281V12.3661Z" fill="#333333"/>
<path d="M14.4167 2L14.31 2.02L10.75 3.4L6.75 2L2.99 3.26667C2.85 3.31333 2.75 3.43333 2.75 3.58667V13.6667C2.75 13.8533 2.89667 14 3.08333 14L3.19 13.98L6.75 12.6L10.75 14L14.51 12.7333C14.65 12.6867 14.75 12.5667 14.75 12.4133V2.33333C14.75 2.14667 14.6033 2 14.4167 2ZM6.08333 11.4333L4.08333 12.2067V4.30667L6.08333 3.63333V11.4333ZM10.0833 12.3533L7.41667 11.42V3.64667L10.0833 4.58V12.3533V12.3533ZM13.4167 11.6933L11.4167 12.3667V4.57333L13.4167 3.8V11.6933Z" fill="#333333"/>
</svg>
