<svg width="32" height="32" viewBox="0 0 32 32" fill="none" xmlns="http://www.w3.org/2000/svg">
<mask id="path-1-inside-1_675_6328" fill="white">
<path fill-rule="evenodd" clip-rule="evenodd" d="M10.3151 18.3145C6.99984 14 6.86934 9.89808 10.0273 6.57742C13.1853 3.25675 18.4342 3.12774 21.7511 6.28926C25.0681 9.45079 24.9998 14 22.039 18.0263L16.4938 26L10.3151 18.3145Z"/>
</mask>
<path fill-rule="evenodd" clip-rule="evenodd" d="M10.3151 18.3145C6.99984 14 6.86934 9.89808 10.0273 6.57742C13.1853 3.25675 18.4342 3.12774 21.7511 6.28926C25.0681 9.45079 24.9998 14 22.039 18.0263L16.4938 26L10.3151 18.3145Z" fill="#6891B7"/>
<path d="M10.3151 18.3145L9.52219 18.9238L9.52888 18.9325L9.53576 18.941L10.3151 18.3145ZM10.0273 6.57742L9.30266 5.88828L10.0273 6.57742ZM21.7511 6.28926L22.4411 5.5654L21.7511 6.28926ZM22.039 18.0263L21.2333 17.4339L21.2255 17.4445L21.218 17.4554L22.039 18.0263ZM16.4938 26L15.7144 26.6266L16.5518 27.6681L17.3148 26.5709L16.4938 26ZM11.1081 17.7052C9.53374 15.6564 8.78842 13.7515 8.7434 12.0469C8.69905 10.3678 9.33019 8.76155 10.7519 7.26655L9.30266 5.88828C7.56645 7.71396 6.68386 9.81895 6.74409 12.0997C6.80366 14.3548 7.78123 16.6581 9.52219 18.9238L11.1081 17.7052ZM10.7519 7.26655C13.529 4.34637 18.1444 4.23298 21.0612 7.01312L22.4411 5.5654C18.724 2.02249 12.8415 2.16713 9.30266 5.88828L10.7519 7.26655ZM21.0612 7.01312C22.5309 8.41402 23.2256 10.0881 23.2493 11.847C23.2733 13.6226 22.6124 15.5586 21.2333 17.4339L22.8446 18.6187C24.4264 16.4677 25.2801 14.116 25.2491 11.82C25.218 9.50734 24.2882 7.32603 22.4411 5.5654L21.0612 7.01312ZM21.218 17.4554L15.6728 25.4291L17.3148 26.5709L22.86 18.5973L21.218 17.4554ZM17.2732 25.3734L11.0945 17.6879L9.53576 18.941L15.7144 26.6266L17.2732 25.3734Z" fill="#171717" mask="url(#path-1-inside-1_675_6328)"/>
</svg>
