<svg width="32" height="32" viewBox="0 0 32 32" fill="none" xmlns="http://www.w3.org/2000/svg">
<path fill-rule="evenodd" clip-rule="evenodd" d="M8.42559 20.7841C4.03166 16.5101 3.86095 9.40626 8.0443 4.91716C12.2276 0.428052 19.1809 0.253646 23.5748 4.52761C27.9688 8.80158 28.1395 15.9054 23.9561 20.3946L16.2601 30.5672L8.42559 20.7841Z" fill="#A0C4FF"/>
<path fill-rule="evenodd" clip-rule="evenodd" d="M9.16734 20.1106L16.2377 28.9394L23.1896 19.7503L23.2245 19.7128C27.0377 15.6209 26.8809 9.13846 22.8776 5.24444C18.8863 1.36211 12.5777 1.51923 8.77588 5.59891C4.96272 9.69078 5.11952 16.1732 9.12284 20.0673L9.16734 20.1106ZM16.2601 30.5672L8.42559 20.7841C4.03166 16.5101 3.86095 9.40626 8.0443 4.91716C12.2276 0.428052 19.1809 0.253646 23.5748 4.52761C27.9688 8.80158 28.1395 15.9054 23.9561 20.3946L16.2601 30.5672Z" fill="black"/>
<path fill-rule="evenodd" clip-rule="evenodd" d="M20.2987 12.1685C20.2987 14.5425 18.3742 16.467 16.0002 16.467C13.6262 16.467 11.7017 14.5425 11.7017 12.1685C11.7017 9.79449 13.6262 7.86998 16.0002 7.86998C18.3742 7.86998 20.2987 9.79449 20.2987 12.1685Z" fill="#FFE479"/>
<path fill-rule="evenodd" clip-rule="evenodd" d="M16.0002 15.467C17.8219 15.467 19.2987 13.9902 19.2987 12.1685C19.2987 10.3468 17.8219 8.86998 16.0002 8.86998C14.1785 8.86998 12.7017 10.3468 12.7017 12.1685C12.7017 13.9902 14.1785 15.467 16.0002 15.467ZM16.0002 16.467C18.3742 16.467 20.2987 14.5425 20.2987 12.1685C20.2987 9.79449 18.3742 7.86998 16.0002 7.86998C13.6262 7.86998 11.7017 9.79449 11.7017 12.1685C11.7017 14.5425 13.6262 16.467 16.0002 16.467Z" fill="black"/>
</svg>
