<svg width="32" height="32" viewBox="0 0 32 32" fill="none" xmlns="http://www.w3.org/2000/svg">
<mask id="path-1-inside-1_675_6333" fill="white">
<path fill-rule="evenodd" clip-rule="evenodd" d="M7.72556 22.0243C2.92566 17.4545 2.73918 9.85878 7.30904 5.05888C11.8789 0.258986 19.4746 0.0725058 24.2745 4.64237C29.0744 9.21223 29.2609 16.8079 24.691 21.6078L16.4165 30.2988L7.72556 22.0243ZM20 13.3333C20 15.5425 18.2091 17.3333 16 17.3333C13.7909 17.3333 12 15.5425 12 13.3333C12 11.1242 13.7909 9.33333 16 9.33333C18.2091 9.33333 20 11.1242 20 13.3333Z"/>
</mask>
<path fill-rule="evenodd" clip-rule="evenodd" d="M7.72556 22.0243C2.92566 17.4545 2.73918 9.85878 7.30904 5.05888C11.8789 0.258986 19.4746 0.0725058 24.2745 4.64237C29.0744 9.21223 29.2609 16.8079 24.691 21.6078L16.4165 30.2988L7.72556 22.0243ZM20 13.3333C20 15.5425 18.2091 17.3333 16 17.3333C13.7909 17.3333 12 15.5425 12 13.3333C12 11.1242 13.7909 9.33333 16 9.33333C18.2091 9.33333 20 11.1242 20 13.3333Z" fill="#86A1FF"/>
<path d="M7.72556 22.0243L7.03602 22.7486H7.03602L7.72556 22.0243ZM7.30904 5.05888L8.03329 5.74842L7.30904 5.05888ZM24.2745 4.64237L24.964 3.91812V3.91812L24.2745 4.64237ZM24.691 21.6078L25.4153 22.2974L24.691 21.6078ZM16.4165 30.2988L15.727 31.023L16.4512 31.7126L17.1408 30.9883L16.4165 30.2988ZM8.41509 21.3001C4.01519 17.111 3.84425 10.1483 8.03329 5.74842L6.58479 4.36934C1.63411 9.56923 1.83613 17.7979 7.03602 22.7486L8.41509 21.3001ZM8.03329 5.74842C12.2223 1.34852 19.185 1.17758 23.585 5.36662L24.964 3.91812C19.7641 -1.03256 11.5355 -0.830544 6.58479 4.36934L8.03329 5.74842ZM23.585 5.36662C27.9849 9.55566 28.1558 16.5184 23.9668 20.9183L25.4153 22.2974C30.3659 17.0975 30.1639 8.8688 24.964 3.91812L23.585 5.36662ZM23.9668 20.9183L15.6923 29.6093L17.1408 30.9883L25.4153 22.2974L23.9668 20.9183ZM17.1061 29.5745L8.41509 21.3001L7.03602 22.7486L15.727 31.023L17.1061 29.5745ZM19 13.3333C19 14.9902 17.6569 16.3333 16 16.3333V18.3333C18.7614 18.3333 21 16.0948 21 13.3333H19ZM16 16.3333C14.3431 16.3333 13 14.9902 13 13.3333H11C11 16.0948 13.2386 18.3333 16 18.3333V16.3333ZM13 13.3333C13 11.6765 14.3431 10.3333 16 10.3333V8.33333C13.2386 8.33333 11 10.5719 11 13.3333H13ZM16 10.3333C17.6569 10.3333 19 11.6765 19 13.3333H21C21 10.5719 18.7614 8.33333 16 8.33333V10.3333Z" fill="black" mask="url(#path-1-inside-1_675_6333)"/>
<path fill-rule="evenodd" clip-rule="evenodd" d="M20 13.3334C20 15.5425 18.2091 17.3334 16 17.3334C13.7909 17.3334 12 15.5425 12 13.3334C12 11.1242 13.7909 9.33337 16 9.33337C18.2091 9.33337 20 11.1242 20 13.3334Z" fill="white"/>
</svg>
