<svg width="32" height="32" viewBox="0 0 32 32" fill="none" xmlns="http://www.w3.org/2000/svg">
<mask id="path-1-inside-1_675_6328" fill="white">
<path fill-rule="evenodd" clip-rule="evenodd" d="M10.3151 18.3145C6.99984 14 6.86934 9.89808 10.0273 6.57742C13.1853 3.25675 18.4342 3.12774 21.7511 6.28926C25.0681 9.45079 24.9998 14 22.039 18.0263L16.4938 26L10.3151 18.3145Z"/>
</mask>
<path fill-rule="evenodd" clip-rule="evenodd" d="M10.3151 18.3145C6.99984 14 6.86934 9.89808 10.0273 6.57742C13.1853 3.25675 18.4342 3.12774 21.7511 6.28926C25.0681 9.45079 24.9998 14 22.039 18.0263L16.4938 26L10.3151 18.3145Z" fill="#86A1FF"/>
<path d="M10.3151 18.3145L9.91857 18.6192L9.92544 18.6277L10.3151 18.3145ZM10.0273 6.57742L9.66498 6.23285L10.0273 6.57742ZM21.7511 6.28926L22.0961 5.92733L21.7511 6.28926ZM22.039 18.0263L21.636 17.73L21.6285 17.7408L22.039 18.0263ZM16.4938 26L16.1041 26.3133L16.5228 26.8341L16.9043 26.2855L16.4938 26ZM10.7116 18.0098C9.09561 15.9068 8.29223 13.9023 8.24357 12.0601C8.19525 10.2306 8.88925 8.49965 10.3896 6.92198L9.66498 6.23285C8.00738 7.97585 7.18765 9.95617 7.24392 12.0865C7.29985 14.204 8.21936 16.4077 9.91866 18.6191L10.7116 18.0098ZM10.3896 6.92198C13.3572 3.80156 18.2893 3.68036 21.4062 6.65119L22.0961 5.92733C18.5791 2.57511 13.0134 2.71194 9.66498 6.23285L10.3896 6.92198ZM21.4062 6.65119C22.9703 8.14202 23.7237 9.94289 23.7493 11.8402C23.775 13.7459 23.0659 15.7859 21.6362 17.7301L22.4418 18.3225C23.9729 16.2404 24.7784 13.9926 24.7492 11.8267C24.7199 9.65252 23.8489 7.59802 22.0961 5.92733L21.4062 6.65119ZM21.6285 17.7408L16.0833 25.7145L16.9043 26.2855L22.4495 18.3118L21.6285 17.7408ZM16.8835 25.6867L10.7048 18.0012L9.92544 18.6277L16.1041 26.3133L16.8835 25.6867Z" fill="#8A8A8A" mask="url(#path-1-inside-1_675_6328)"/>
</svg>
