<svg width="32" height="32" viewBox="0 0 32 32" fill="none" xmlns="http://www.w3.org/2000/svg">
<circle cx="16" cy="15" r="10" fill="#333333"/>
<path d="M16 16.5C16.8284 16.5 17.5 15.8284 17.5 15C17.5 14.1716 16.8284 13.5 16 13.5C15.1716 13.5 14.5 14.1716 14.5 15C14.5 15.8284 15.1716 16.5 16 16.5Z" fill="#FFE479"/>
<path d="M20 11H18.415L17.795 10.325C17.61 10.12 17.34 10 17.06 10H14.94C14.66 10 14.39 10.12 14.2 10.325L13.585 11H12C11.45 11 11 11.45 11 12V18C11 18.55 11.45 19 12 19H20C20.55 19 21 18.55 21 18V12C21 11.45 20.55 11 20 11ZM16 17.5C14.62 17.5 13.5 16.38 13.5 15C13.5 13.62 14.62 12.5 16 12.5C17.38 12.5 18.5 13.62 18.5 15C18.5 16.38 17.38 17.5 16 17.5Z" fill="#FFE479"/>
</svg>
