<svg width="33" height="32" viewBox="0 0 33 32" fill="none" xmlns="http://www.w3.org/2000/svg">
<path d="M16.1666 3.66683C20.3666 3.66683 23.8332 7.1335 23.8332 11.3335V21.6668H8.4999V11.3335C8.4999 7.1335 11.9666 3.66683 16.1666 3.66683ZM16.1666 1.3335C10.6999 1.3335 6.16656 5.86683 6.16656 11.3335V21.6668H4.4999C4.2999 21.6668 4.16656 21.8002 4.16656 22.0002V23.6668C4.16656 23.8668 4.2999 24.0002 4.4999 24.0002H27.8332C28.0332 24.0002 28.1666 23.8668 28.1666 23.6668V22.0002C28.1666 21.8002 28.0332 21.6668 27.8332 21.6668H26.1666V11.3335C26.1666 5.86683 21.6999 1.3335 16.1666 1.3335Z" fill="black"/>
<path d="M16.1666 30.6668C17.4552 30.6668 18.4999 29.6222 18.4999 28.3335C18.4999 27.0448 17.4552 26.0002 16.1666 26.0002C14.8779 26.0002 13.8332 27.0448 13.8332 28.3335C13.8332 29.6222 14.8779 30.6668 16.1666 30.6668Z" fill="black"/>
</svg>
