<svg width="16" height="16" viewBox="0 0 16 16" fill="none" xmlns="http://www.w3.org/2000/svg">
<path fill-rule="evenodd" clip-rule="evenodd" d="M9.52855 2.86225C9.7889 2.6019 10.211 2.6019 10.4714 2.86225L13.8047 6.19559C14.065 6.45594 14.065 6.87805 13.8047 7.1384L7.13803 13.8051C7.01301 13.9301 6.84344 14.0003 6.66663 14.0003H3.33329C2.9651 14.0003 2.66663 13.7018 2.66663 13.3337V10.0003C2.66663 9.82351 2.73686 9.65394 2.86189 9.52892L9.52855 2.86225ZM3.99996 10.2765V12.667H6.39048L12.3905 6.66699L9.99996 4.27647L3.99996 10.2765Z" fill="#333333"/>
<path fill-rule="evenodd" clip-rule="evenodd" d="M10.8619 9.1384L7.52855 5.80506L8.47136 4.86225L11.8047 8.19559L10.8619 9.1384Z" fill="#333333"/>
</svg>
