<svg width="17" height="16" viewBox="0 0 17 16" fill="none" xmlns="http://www.w3.org/2000/svg">
<path fill-rule="evenodd" clip-rule="evenodd" d="M9.49998 3.3335C9.49998 2.78121 9.05226 2.3335 8.49998 2.3335C7.9477 2.3335 7.49998 2.78121 7.49998 3.3335V7.00016L3.83331 7.00016C3.28103 7.00016 2.83331 7.44788 2.83331 8.00016C2.83331 8.55245 3.28103 9.00016 3.83331 9.00016H7.49998V12.6668C7.49998 13.2191 7.9477 13.6668 8.49998 13.6668C9.05226 13.6668 9.49998 13.2191 9.49998 12.6668V9.00016H13.1666C13.7189 9.00016 14.1666 8.55245 14.1666 8.00016C14.1666 7.44788 13.7189 7.00016 13.1666 7.00016L9.49998 7.00016V3.3335Z" fill="#333333"/>
</svg>
