<svg width="33" height="32" viewBox="0 0 33 32" fill="none" xmlns="http://www.w3.org/2000/svg">
<path fill-rule="evenodd" clip-rule="evenodd" d="M20.5 12.3335H24.8333V26.1667L8.83331 26.1667V6L18.5 6V6.00016V10.3335V12.3335H20.5ZM8.83331 4C7.72874 4 6.83331 4.89543 6.83331 6V26.1667C6.83331 27.2712 7.72874 28.1667 8.83331 28.1667H24.8333C25.9379 28.1667 26.8333 27.2712 26.8333 26.1667V12.3335V12.0002V12C26.8333 11.7929 26.8254 11.5876 26.81 11.3845C26.4957 7.2538 23.0445 4 18.8333 4H8.83331ZM20.5 6.23467C22.4737 6.80421 24.0293 8.35979 24.5988 10.3335H20.5V6.23467ZM16 11.5H10.1666V13.1667H16V11.5ZM10.1666 16.5H23.5V18.1667H10.1666V16.5ZM23.5 21.5H10.1666V23.1667H23.5V21.5Z" fill="black"/>
</svg>
