<svg width="24" height="24" viewBox="0 0 24 24" fill="none" xmlns="http://www.w3.org/2000/svg">
<path d="M18.501 12C18.501 11.793 18.492 11.595 18.474 11.388L20.148 10.119C20.508 9.849 20.607 9.345 20.382 8.949L18.699 6.042C18.474 5.646 17.988 5.484 17.574 5.664L15.639 6.483C15.306 6.249 14.955 6.042 14.586 5.871L14.325 3.792C14.271 3.342 13.884 3 13.434 3H10.077C9.61797 3 9.23097 3.342 9.17697 3.792L8.91597 5.871C8.54697 6.042 8.19597 6.249 7.86297 6.483L5.92797 5.664C5.51397 5.484 5.02797 5.646 4.80297 6.042L3.11997 8.958C2.89497 9.354 2.99397 9.849 3.35397 10.128L5.02797 11.397C5.00997 11.595 5.00097 11.793 5.00097 12C5.00097 12.207 5.00997 12.405 5.02797 12.612L3.35397 13.881C2.99397 14.151 2.89497 14.655 3.11997 15.051L4.80297 17.958C5.02797 18.354 5.51397 18.516 5.92797 18.336L7.86297 17.517C8.19597 17.751 8.54697 17.958 8.91597 18.129L9.17697 20.208C9.23097 20.658 9.61797 21 10.068 21H13.425C13.875 21 14.262 20.658 14.316 20.208L14.577 18.129C14.946 17.958 15.297 17.751 15.63 17.517L17.565 18.336C17.979 18.516 18.465 18.354 18.69 17.958L20.373 15.051C20.598 14.655 20.499 14.16 20.139 13.881L18.465 12.612C18.492 12.405 18.501 12.207 18.501 12ZM11.787 15.15C10.05 15.15 8.63697 13.737 8.63697 12C8.63697 10.263 10.05 8.85 11.787 8.85C13.524 8.85 14.937 10.263 14.937 12C14.937 13.737 13.524 15.15 11.787 15.15Z" fill="black"/>
</svg>
