<svg width="17" height="16" viewBox="0 0 17 16" fill="none" xmlns="http://www.w3.org/2000/svg">
<path fill-rule="evenodd" clip-rule="evenodd" d="M8.91669 3.33317C8.91669 2.96498 9.21516 2.6665 9.58335 2.6665H12.9167C13.2849 2.6665 13.5834 2.96498 13.5834 3.33317V6.6665C13.5834 7.03469 13.2849 7.33317 12.9167 7.33317C12.5485 7.33317 12.25 7.03469 12.25 6.6665V3.99984H9.58335C9.21516 3.99984 8.91669 3.70136 8.91669 3.33317Z" fill="#333333"/>
<path fill-rule="evenodd" clip-rule="evenodd" d="M4.91669 3.99984C4.5485 3.99984 4.25002 4.29831 4.25002 4.6665V11.3332C4.25002 11.7014 4.5485 11.9998 4.91669 11.9998H11.5834C11.9515 11.9998 12.25 11.7014 12.25 11.3332V9.33317C12.25 8.96498 12.5485 8.6665 12.9167 8.6665C13.2849 8.6665 13.5834 8.96498 13.5834 9.33317V11.3332C13.5834 12.4377 12.6879 13.3332 11.5834 13.3332H4.91669C3.81212 13.3332 2.91669 12.4377 2.91669 11.3332V4.6665C2.91669 3.56193 3.81212 2.6665 4.91669 2.6665H6.91669C7.28488 2.6665 7.58335 2.96498 7.58335 3.33317C7.58335 3.70136 7.28488 3.99984 6.91669 3.99984H4.91669Z" fill="#333333"/>
<path fill-rule="evenodd" clip-rule="evenodd" d="M13.3884 2.86177C13.6488 3.12212 13.6488 3.54423 13.3884 3.80457L8.72175 8.47124C8.4614 8.73159 8.03929 8.73159 7.77894 8.47124C7.51859 8.21089 7.51859 7.78878 7.77894 7.52843L12.4456 2.86177C12.706 2.60142 13.1281 2.60142 13.3884 2.86177Z" fill="#333333"/>
</svg>
