<svg width="99" height="32" viewBox="0 0 99 32" fill="none" xmlns="http://www.w3.org/2000/svg">
<rect x="2.5" y="2.5" width="90" height="23" rx="11.5" fill="#FFE479" stroke="black"/>
<path d="M30.0452 12.8392L29.1156 13.784L28.5578 13.2111V10.8242L29.3015 10.0804L30.0452 10.8242V12.8392ZM28.5628 17.2764L29.3065 18.0201L30.0503 17.2764V15.2613L29.1206 14.3317L28.5628 14.8895V17.2764ZM34.8894 9.05029L33.402 10.5377H30.3317L29.5879 9.78899L30.3317 9.05029H34.8894ZM30.3317 19.0453L29.5879 18.3016L30.3317 17.5578H33.402L34.8894 19.0402H30.3317V19.0453Z" fill="black"/>
<path d="M36.5578 13.2061V9.05029L38.0402 10.5478V12.8342L37.1106 13.7789L36.5528 13.2061H36.5578ZM38.0402 15.2664V17.2814L36.5578 18.7639V14.8895L37.1156 14.3317L38.0452 15.2613L38.0402 15.2664ZM36.8392 19.0453L38.3266 17.5629H41.397L42.8844 19.0453H36.8392Z" fill="black"/>
<path d="M44.5528 13.2061V9.3317L46.0352 10.794V12.8242L45.1055 13.7739L44.5477 13.201L44.5528 13.2061ZM46.0352 15.2664V17.2814L44.5528 18.7639V14.8895L45.1106 14.3317L46.0402 15.2613L46.0352 15.2664ZM50.8794 9.05029L49.392 10.5377H46.3216L44.8392 9.05029H50.8794ZM44.8392 19.0453L46.3266 17.5629H49.397L50.8844 19.0453H44.8392ZM49.3065 13.3066L50.0503 14.0503L49.3065 14.794H46.1357L45.392 14.0503L46.1357 13.3066H49.3065Z" fill="black"/>
<path d="M52.5477 13.2061V9.3317L54.0302 10.794V12.8242L53.1005 13.7739L52.5427 13.201L52.5477 13.2061ZM54.0302 15.2613V17.5629L52.5477 19.0503V14.8945L53.1055 14.3367L54.0352 15.2664L54.0302 15.2613ZM58.603 9.05029L57.1206 10.5377H54.3216L52.8342 9.05029H58.603ZM57.3015 13.3066L58.0452 14.0503L57.3015 14.794H54.1307L53.3869 14.0503L54.1307 13.3066H57.3015ZM57.3869 12.8342V10.8141L58.8744 9.3518V13.2111L58.3166 13.7789L57.3869 12.8342ZM58.8744 14.8945V19.0503L57.3869 17.5679V15.2714L58.3166 14.3418L58.8744 14.8995V14.8945Z" fill="black"/>
<path d="M60.5427 13.2061V9.05029L62.0352 10.5428V12.8342L61.1005 13.7789L60.5427 13.2061ZM62.0251 15.2613V17.5629L60.5427 19.0503V14.8945L61.1005 14.3367L62.0302 15.2664L62.0251 15.2613ZM60.9447 9.05029H63.1156L65.0452 11.0855V12.1608H63.9799L60.9447 9.05029ZM65.3819 12.8342V10.5528L66.8694 9.05029V13.2061L66.3116 13.7789L65.3819 12.8342ZM66.8694 14.8895V19.0453L65.3819 17.5629V15.2664L66.3116 14.3367L66.8694 14.8945V14.8895Z" fill="black"/>
<defs>
<filter id="filter0_d_1173_6877" x="0" y="0" width="99" height="32" filterUnits="userSpaceOnUse" color-interpolation-filters="sRGB">
<feFlood flood-opacity="0" result="BackgroundImageFix"/>
<feColorMatrix in="SourceAlpha" type="matrix" values="0 0 0 0 0 0 0 0 0 0 0 0 0 0 0 0 0 0 127 0" result="hardAlpha"/>
<feOffset dx="2" dy="2"/>
<feGaussianBlur stdDeviation="2"/>
<feComposite in2="hardAlpha" operator="out"/>
<feColorMatrix type="matrix" values="0 0 0 0 0 0 0 0 0 0 0 0 0 0 0 0 0 0 0.16 0"/>
<feBlend mode="normal" in2="BackgroundImageFix" result="effect1_dropShadow_1173_6877"/>
<feBlend mode="normal" in="SourceGraphic" in2="effect1_dropShadow_1173_6877" result="shape"/>
</filter>
</defs>
</svg>
