<svg width="99" height="32" viewBox="0 0 99 32" fill="none" xmlns="http://www.w3.org/2000/svg">
<rect x="2.5" y="2.5" width="90" height="23" rx="11.5" fill="#FF5A5A" stroke="black"/>
<path d="M17 9L18.4774 10.4925V12.7688L17.5528 13.7085L17 13.1407V9ZM18.4774 15.1809V17.4724L17 18.9497V14.8141L17.5528 14.2613L18.4774 15.1859V15.1809ZM21.7286 13.2362L22.4673 13.9749L21.7286 14.7136H18.5729L17.8342 13.9749L18.5729 13.2362H21.7286ZM21.8141 12.7688V10.4975L23.2915 9.00503V13.1407L22.7387 13.7085L21.8141 12.7688ZM23.2915 14.8141V18.9497L21.8141 17.4724V15.1859L22.7387 14.2613L23.2915 14.8141Z" fill="black"/>
<path d="M26.2764 12.7688L25.3518 13.7085L24.799 13.1407V10.7688L25.5377 10.0302L26.2764 10.7688V12.7739V12.7688ZM24.799 17.1859L25.5377 17.9246L26.2764 17.1859V15.1809L25.3518 14.2563L24.799 14.809V17.1859ZM30.0854 9.73367L29.3467 10.4774H26.5628L25.8241 9.73367L26.5628 9H29.3467L30.0854 9.73367ZM26.5628 18.9447L25.8241 18.206L26.5628 17.4673H29.3467L30.0854 18.206L29.3467 18.9447H26.5628ZM31.0955 13.1357L30.5427 13.7035L29.6181 12.7638V10.7588L30.3568 10.0201L31.0955 10.7588V13.1357ZM31.0955 17.1859L30.3568 17.9246L29.6181 17.1859V15.1809L30.5427 14.2563L31.0955 14.809V17.1859Z" fill="black"/>
<path d="M39.5628 9.73367L38.809 10.4774H33.3417L32.603 9.73367L33.3417 9H38.809L39.5628 9.73367ZM36.8191 13.1307L36.2663 13.7035L35.3417 12.7588V11.6181L36.0804 10.8744L36.8191 11.6181V13.1307ZM36.8191 18.2613L36.0804 19L35.3417 18.2613V15.1809L36.2663 14.2563L36.8191 14.809V18.2613Z" fill="black"/>
<path d="M41.0704 13.1357V9.28141L42.5477 10.7387V12.7588L41.6231 13.7035L41.0704 13.1357ZM42.5477 15.1809V17.4724L41.0704 18.9497V14.8141L41.6231 14.2613L42.5477 15.1859V15.1809ZM46.3568 9.73367L45.6181 10.4774H42.8342L41.3568 9H45.6181L46.3568 9.73367ZM45.804 13.2362L46.5427 13.9749L45.804 14.7136H42.6482L41.9096 13.9749L42.6482 13.2362H45.804ZM47.3668 13.1357L46.8141 13.7035L45.8895 12.7638V10.7588L46.6281 10.0201L47.3668 10.7588V13.1357Z" fill="black"/>
<path d="M48.8744 9L50.3518 10.4925V12.7688L49.4271 13.7085L48.8744 13.1407V9ZM50.3518 15.1859V17.191L48.8744 18.6683V14.8141L49.4271 14.2613L50.3518 15.1859ZM55.1658 18.9497H49.1558L50.6332 17.4724H53.6884L55.1658 18.9497Z" fill="black"/>
<path d="M56.6734 13.1357V9.28141L58.1508 10.7387V12.7588L57.2261 13.7035L56.6734 13.1357ZM58.1508 15.1809V17.4724L56.6734 18.9497V14.8141L57.2261 14.2613L58.1508 15.1859V15.1809ZM62.6985 9L61.2211 10.4774H58.4372L56.9598 9H62.6985ZM61.407 13.2312L62.1457 13.9699L61.407 14.7085H58.2513L57.5126 13.9699L58.2513 13.2312H61.407ZM61.4925 10.7487L62.9698 9.29146V13.1357L62.4171 13.7035L61.4925 12.7638V10.7487ZM62.9698 14.809V18.9447L61.4925 17.4673V15.1809L62.4171 14.2563L62.9698 14.809Z" fill="black"/>
<path d="M65.9548 12.7638L65.0301 13.7035L64.4774 13.1357V10.7638L65.2161 10.0251L65.9548 10.7638V12.7688V12.7638ZM64.4774 17.1809L65.2161 17.9196L65.9548 17.1809V15.1759L65.0301 14.2513L64.4774 14.804V17.1809ZM70.7688 9L69.2915 10.4774H66.2362L65.4975 9.73367L66.2362 9H70.7688ZM66.2362 18.9447L65.4975 18.206L66.2362 17.4673H69.2915L70.7688 18.9447H66.2362Z" fill="black"/>
<path d="M72.2764 13.1307V9.27638L73.7538 10.7337V12.7538L72.8291 13.6985L72.2764 13.1307ZM73.7538 15.1809V17.1859L72.2764 18.6633V14.809L72.8291 14.2563L73.7538 15.1809ZM78.5678 9L77.0904 10.4774H74.0352L72.5578 9H78.5678ZM78.5678 18.9447H72.5578L74.0352 17.4673H77.0904L78.5678 18.9447ZM77.005 13.2312L77.7437 13.9699L77.005 14.7085H73.8492L73.1105 13.9699L73.8492 13.2312H77.005Z" fill="black"/>
<defs>
<filter id="filter0_d_1173_6858" x="0" y="0" width="99" height="32" filterUnits="userSpaceOnUse" color-interpolation-filters="sRGB">
<feFlood flood-opacity="0" result="BackgroundImageFix"/>
<feColorMatrix in="SourceAlpha" type="matrix" values="0 0 0 0 0 0 0 0 0 0 0 0 0 0 0 0 0 0 127 0" result="hardAlpha"/>
<feOffset dx="2" dy="2"/>
<feGaussianBlur stdDeviation="2"/>
<feComposite in2="hardAlpha" operator="out"/>
<feColorMatrix type="matrix" values="0 0 0 0 0 0 0 0 0 0 0 0 0 0 0 0 0 0 0.16 0"/>
<feBlend mode="normal" in2="BackgroundImageFix" result="effect1_dropShadow_1173_6858"/>
<feBlend mode="normal" in="SourceGraphic" in2="effect1_dropShadow_1173_6858" result="shape"/>
</filter>
</defs>
</svg>
