<svg width="29" height="28" viewBox="0 0 29 28" fill="none" xmlns="http://www.w3.org/2000/svg">
<path fill-rule="evenodd" clip-rule="evenodd" d="M21.5256 23.7294C19.5507 25.158 17.1236 26 14.4999 26C12.0116 26 9.70011 25.2426 7.7835 23.9458V23.8631C7.7835 20.0734 10.8655 16.9914 14.6552 16.9914C18.4002 16.9914 21.4541 20.0012 21.5256 23.7294ZM23.2436 22.2188C22.6907 19.3044 20.6942 16.9114 18.0229 15.809C19.2021 14.8312 19.9747 13.3743 19.9752 11.7584C20.0187 8.87599 17.7135 6.48453 14.8772 6.35157C11.8176 6.21855 9.33517 8.65799 9.33517 11.6714C9.33517 13.3258 10.1064 14.8242 11.2879 15.8088C8.53393 16.9451 6.49703 19.4532 6.01968 22.4903C3.84516 20.3183 2.49994 17.3163 2.49994 14C2.49994 7.37258 7.87252 2 14.4999 2C21.1274 2 26.4999 7.37258 26.4999 14C26.4999 17.1802 25.2628 20.0715 23.2436 22.2188ZM28.4999 14C28.4999 21.732 22.2319 28 14.4999 28C6.76795 28 0.499939 21.732 0.499939 14C0.499939 6.26801 6.76795 0 14.4999 0C22.2319 0 28.4999 6.26801 28.4999 14ZM14.6552 8.22195C12.7477 8.22195 11.2057 9.76394 11.2057 11.6714C11.2057 13.5789 12.7477 15.1208 14.6552 15.1208C16.5626 15.1208 18.1046 13.5789 18.1046 11.6714C18.1046 9.76394 16.5626 8.22195 14.6552 8.22195Z" fill="black"/>
</svg>
