<svg width="16" height="16" viewBox="0 0 16 16" fill="none" xmlns="http://www.w3.org/2000/svg">
<path fill-rule="evenodd" clip-rule="evenodd" d="M4.66667 3.33301V2.66634C4.66667 1.92996 5.26362 1.33301 6 1.33301H10C10.7364 1.33301 11.3333 1.92996 11.3333 2.66634V3.33301H13.3333C13.7015 3.33301 14 3.63148 14 3.99967C14 4.36786 13.7015 4.66634 13.3333 4.66634H12.6667V11.9997C12.6667 13.1042 11.7712 13.9997 10.6667 13.9997H5.33333C4.22876 13.9997 3.33333 13.1042 3.33333 11.9997V4.66634H2.66667C2.29848 4.66634 2 4.36786 2 3.99967C2 3.63148 2.29848 3.33301 2.66667 3.33301H4.66667ZM6 2.66634H10V3.33301H6V2.66634ZM4.66667 4.66634H11.3333V11.9997C11.3333 12.3679 11.0349 12.6663 10.6667 12.6663H5.33333C4.96514 12.6663 4.66667 12.3679 4.66667 11.9997V4.66634Z" fill="#333333"/>
<path d="M10 5.99967H8.66667V11.333H10V5.99967Z" fill="#333333"/>
<path d="M7.33333 5.99967H6V11.333H7.33333V5.99967Z" fill="#333333"/>
</svg>
