<svg width="24" height="24" viewBox="0 0 24 24" fill="none" xmlns="http://www.w3.org/2000/svg">
<path d="M20.775 21.9053C20.91 21.9053 21 21.8153 21 21.6803C21 21.5453 21 21.3653 21 21.2303C21 17.3603 18.57 14.0753 15.15 12.8153C16.5 11.8253 17.4 10.2503 17.4 8.49527C17.445 5.57027 15.105 3.14027 12.225 3.00527C9.12 2.87027 6.6 5.34527 6.6 8.40527C6.6 10.2053 7.5 11.8253 8.85 12.8153C5.43 14.0753 3 17.3603 3 21.2303C3 21.3653 3 21.5453 3 21.6803C3 21.8153 3.09 21.9053 3.225 21.9053H20.775Z" fill="black"/>
</svg>
