<svg width="24" height="24" viewBox="0 0 24 24" fill="none" xmlns="http://www.w3.org/2000/svg">
<path d="M21.8571 10.8704L12.1429 2.07134C12.0476 1.97622 11.9048 1.97622 11.8095 2.07134L2.14286 10.8704C2.04762 10.9655 2 11.0606 2 11.2033V21.7622C2 21.9049 2.09524 22 2.2381 22H21.7619C21.9048 22 22 21.9049 22 21.7622V11.2033C22 11.0606 21.9524 10.9655 21.8571 10.8704ZM19.619 19.6219H13.1905V15.1034C13.1905 14.9608 13.0952 14.8656 12.9524 14.8656H11.0476C10.9048 14.8656 10.8095 14.9608 10.8095 15.1034V19.6219H4.38095V12.0595L12 5.1629L19.619 12.0595V19.6219Z" fill="#E1E2E4"/>
</svg>
