<svg width="24" height="24" viewBox="0 0 24 24" fill="none" xmlns="http://www.w3.org/2000/svg">
<path d="M15.15 12.8153C16.5 11.8253 17.4 10.2503 17.4 8.49527C17.445 5.57027 15.105 3.14027 12.225 3.00527C9.12 2.87027 6.6 5.34527 6.6 8.40527C6.6 10.2053 7.5 11.8253 8.85 12.8153C5.43 14.0753 3 17.3603 3 21.2303C3 21.3653 3 21.5453 3 21.6803C3 21.8153 3.09 21.9053 3.225 21.9053H5.025C5.16 21.9053 5.25 21.8153 5.25 21.6803C5.25 21.5453 5.25 21.4103 5.25 21.2303C5.25 17.4953 8.265 14.4803 12 14.4803C15.735 14.4803 18.75 17.4953 18.75 21.2303C18.75 21.3653 18.75 21.5003 18.75 21.6803C18.75 21.8153 18.84 21.9053 18.975 21.9053H20.775C20.91 21.9053 21 21.8153 21 21.6803C21 21.5453 21 21.3653 21 21.2303C21 17.3603 18.57 14.0753 15.15 12.8153ZM12 11.5553C10.245 11.5553 8.85 10.1603 8.85 8.40527C8.85 6.65027 10.245 5.25527 12 5.25527C13.755 5.25527 15.15 6.65027 15.15 8.40527C15.15 10.1603 13.755 11.5553 12 11.5553Z" fill="#E1E2E4"/>
</svg>
